<svg width="77" height="24" viewBox="0 0 77 24" fill="none" xmlns="http://www.w3.org/2000/svg">
<path d="M15.5555 4.06274V16.6697H19.2373V11.4088C19.2373 5.10785 14.1426 0 7.8578 0H2.61035V3.69126H15.185C15.3897 3.69112 15.5555 3.85738 15.5555 4.06274Z" fill="#F16730"/>
<path d="M6.29199 20.3006V20.767C8.31822 22.6343 11.0206 23.7751 13.9897 23.7751H19.2373V20.084H6.50789C6.38853 20.0841 6.29199 20.1811 6.29199 20.3006Z" fill="#F16730"/>
<path d="M3.67916 19.209V11.9603C3.67916 11.7551 3.84513 11.5886 4.04983 11.5886H11.9927V7.89746H11.3769C5.12477 7.89746 0.0522809 12.9532 0 19.209H3.67916Z" fill="#F16730"/>
<path d="M32.6175 19.1103C32.362 18.9908 32.0582 18.8937 31.7056 18.8188C31.3529 18.7442 30.9888 18.7067 30.6135 18.7067C29.8932 18.7067 29.3378 18.8674 28.9476 19.1888C28.5572 19.5106 28.3623 19.9255 28.3623 20.4336C28.3623 20.7029 28.422 20.935 28.5425 21.1291C28.6625 21.3235 28.8238 21.4805 29.0266 21.6C29.2292 21.72 29.4577 21.8057 29.7131 21.858C29.9682 21.9107 30.2383 21.9366 30.5234 21.9366C30.9289 21.9366 31.3114 21.9141 31.6716 21.8693C32.032 21.8244 32.3471 21.7649 32.6174 21.69V19.1103H32.6175ZM32.6175 15.8355C32.6175 15.5518 32.5499 15.3011 32.4146 15.0841C32.2796 14.8675 32.0994 14.688 31.8745 14.5458C31.6493 14.4039 31.3904 14.2992 31.0976 14.2318C30.8051 14.1646 30.5012 14.1307 30.186 14.1307C29.7208 14.1307 29.2701 14.2094 28.8352 14.3665C28.3996 14.5233 28.0321 14.7665 27.732 15.0954L26.3363 13.6597C26.9666 12.9571 27.6306 12.4932 28.3287 12.2692C29.0267 12.0451 29.7505 11.9326 30.5012 11.9326C31.0713 11.9326 31.6305 12.0112 32.1784 12.1682C32.7261 12.3253 33.2176 12.5608 33.653 12.8748C34.0881 13.1891 34.437 13.5851 34.6999 14.0636C34.9624 14.5423 35.0941 15.1105 35.0941 15.7684V23.2151C34.5537 23.4249 33.897 23.6076 33.124 23.7646C32.3508 23.9217 31.5368 24.0001 30.6812 24.0001C30.0654 24.0001 29.4728 23.9442 28.9027 23.8321C28.3321 23.7198 27.8292 23.5293 27.394 23.26C26.9587 22.991 26.606 22.6287 26.3362 22.1722C26.0659 21.7161 25.9307 21.1443 25.9307 20.4563C25.9307 19.8136 26.0546 19.2602 26.3022 18.7964C26.5497 18.333 26.8763 17.9478 27.2817 17.6412C27.6868 17.335 28.1483 17.1068 28.666 16.9571C29.184 16.8078 29.7131 16.7326 30.2532 16.7326C30.6734 16.7326 31.0866 16.7704 31.4917 16.845C31.8969 16.92 32.272 17.032 32.6175 17.1814V15.8355Z" fill="#1D797C"/>
<path d="M41.9604 11.9316C42.1555 11.9316 42.362 11.9395 42.5797 11.9541C42.7972 11.9694 43.0334 12.0068 43.2889 12.0664V14.2419C42.9737 14.1524 42.6209 14.1151 42.2307 14.1298C41.8403 14.1449 41.4765 14.2235 41.1389 14.3655C40.8011 14.5075 40.5195 14.713 40.2946 14.9821C40.0695 15.2514 39.9569 15.5806 39.9569 15.9693V23.775H37.4805V15.9245C37.4805 15.0872 37.6831 14.3766 38.0883 13.7938C38.4937 13.2104 39.0114 12.7545 39.6418 12.4253C39.8219 12.3357 40.028 12.2571 40.2609 12.1897C40.4935 12.1226 40.7226 12.0703 40.9476 12.0329C41.1728 11.9957 41.3754 11.9695 41.5556 11.9542C41.7353 11.9395 41.8705 11.9316 41.9604 11.9316Z" fill="#1D797C"/>
<path d="M49.84 23.932C49.5248 23.9769 49.2171 23.9993 48.9171 23.9993C48.3466 23.9993 47.8099 23.9209 47.3072 23.7638C46.8042 23.6068 46.3652 23.3603 45.9901 23.0236C45.615 22.6874 45.322 22.2576 45.1122 21.734C44.9019 21.2107 44.7969 20.5826 44.7969 19.85V9.41992H47.026L47.2509 12.1563H49.4797V14.3995H47.2509V19.8274C47.2509 20.2911 47.3221 20.654 47.4647 20.9155C47.6073 21.1772 47.7986 21.3718 48.039 21.4987C48.2787 21.6259 48.5528 21.7045 48.8607 21.7343C49.1681 21.7644 49.4945 21.7791 49.8399 21.7791V23.932H49.84Z" fill="#1D797C"/>
<path d="M55.7609 15.9243C55.7609 15.2514 55.892 14.6649 56.1548 14.1636C56.4173 13.6627 56.7663 13.2478 57.2016 12.9185C57.6368 12.5899 58.1283 12.3431 58.6763 12.1785C59.224 12.014 59.7832 11.9316 60.3539 11.9316C60.8039 11.9316 61.2654 11.9878 61.7382 12.0998C62.2109 12.212 62.6537 12.388 63.0665 12.6272C63.4792 12.8664 63.8434 13.1806 64.1586 13.569C64.4738 13.9581 64.7135 14.4291 64.8789 14.982L62.6277 15.8345C62.4775 15.3112 62.2 14.9298 61.7945 14.6905C61.3892 14.4516 60.9464 14.3315 60.4663 14.3315C60.196 14.3315 59.9294 14.3653 59.667 14.4326C59.4042 14.4997 59.1677 14.6008 58.9579 14.7353C58.7475 14.8699 58.5749 15.0347 58.4401 15.2289C58.3048 15.4232 58.2376 15.6479 58.2376 15.9019V20.0291C58.2376 20.5376 58.4549 20.9261 58.8903 21.1955C59.3254 21.4646 59.8133 21.5992 60.354 21.5992C60.8341 21.5992 61.2956 21.4797 61.7383 21.2405C62.1809 21.0014 62.4776 20.6201 62.6278 20.0965L64.924 20.9487C64.7589 21.5021 64.5149 21.973 64.1924 22.3619C63.8693 22.751 63.5016 23.0649 63.0891 23.3038C62.6761 23.5434 62.2296 23.7188 61.7494 23.8311C61.2689 23.9432 60.8039 23.9991 60.3537 23.9991C59.7831 23.9991 59.2239 23.9167 58.6762 23.7525C58.1282 23.5881 57.6368 23.3412 57.2015 23.0123C56.7661 22.6834 56.4173 22.2685 56.1546 21.7674C55.8919 21.2664 55.7607 20.6796 55.7607 20.0066V15.9243H55.7609Z" fill="#1D797C"/>
<path d="M73.4112 12.1563H76.5182L71.655 17.5172L76.4957 23.7751H73.5914L69.9215 19.0198L69.2236 19.7152V23.7751H66.7471V7.89746H69.2236V16.8442L73.4112 12.1563Z" fill="#1D797C"/>
</svg>
