<svg width="32" height="32" viewBox="0 0 32 32" fill="none" xmlns="http://www.w3.org/2000/svg">
<circle cx="16" cy="16" r="15" fill="#F16730" stroke="#F16730" stroke-width="2"/>
<path d="M10.9442 22.0009C10.841 22.0009 10.755 21.9665 10.6862 21.8977C10.6174 21.8289 10.583 21.7429 10.583 21.6397C10.583 21.6053 10.5887 21.5709 10.6002 21.5365C10.6117 21.5021 10.6231 21.4677 10.6346 21.4333L14.4874 15.8605L10.8754 10.5285C10.841 10.4597 10.8238 10.3909 10.8238 10.3221C10.8238 10.2189 10.8582 10.1329 10.927 10.0641C10.9958 9.99534 11.0761 9.96094 11.1678 9.96094H12.9394C13.077 9.96094 13.1859 9.99534 13.2662 10.0641C13.3465 10.1329 13.4153 10.2075 13.4726 10.2877L16.001 14.0029L18.5466 10.2877C18.5925 10.2075 18.6555 10.1329 18.7358 10.0641C18.8275 9.99534 18.9422 9.96094 19.0798 9.96094H20.7482C20.8514 9.96094 20.9374 9.99534 21.0062 10.0641C21.075 10.1329 21.1094 10.2189 21.1094 10.3221C21.1094 10.3909 21.0865 10.4597 21.0406 10.5285L17.4458 15.8605L21.2986 21.4333C21.3215 21.4677 21.3387 21.5021 21.3502 21.5365C21.3617 21.5709 21.3674 21.6053 21.3674 21.6397C21.3674 21.7429 21.3273 21.8289 21.247 21.8977C21.1782 21.9665 21.0979 22.0009 21.0062 22.0009H19.183C19.0454 22.0009 18.9365 21.9665 18.8562 21.8977C18.7759 21.8289 18.7129 21.7601 18.667 21.6913L15.915 17.8041L13.2146 21.6913C13.1687 21.7601 13.1057 21.8289 13.0254 21.8977C12.9451 21.9665 12.8305 22.0009 12.6814 22.0009H10.9442Z" fill="white"/>
</svg>
