<svg width="32" height="32" viewBox="0 0 32 32" fill="none" xmlns="http://www.w3.org/2000/svg">
<circle cx="16" cy="16" r="15" fill="#256254" stroke="#256254" stroke-width="2"/>
<path d="M14.75 16.125C14.75 16.6082 14.3582 17 13.875 17C13.3917 17 13 16.6082 13 16.125C13 14.7465 14.1215 13.625 15.5 13.625C16.8785 13.625 18 14.7465 18 16.125C18 16.6082 17.6082 17 17.125 17C16.6417 17 16.25 16.6082 16.25 16.125C16.25 15.7114 15.9135 15.375 15.5 15.375C15.0865 15.375 14.75 15.7114 14.75 16.125ZM15.5 10.625C12.4673 10.625 9.99999 13.0923 9.99999 16.125C9.99999 16.6082 10.3917 17 10.875 17C11.3582 17 11.75 16.6082 11.75 16.125C11.75 14.0572 13.4322 12.375 15.5 12.375C17.5677 12.375 19.25 14.0572 19.25 16.125C19.25 18.4739 17.031 18.3222 17.0001 20.6132L17 20.625C17 21.521 16.271 22.25 15.375 22.25C14.8917 22.25 14.5 22.6417 14.5 23.125C14.5 23.6082 14.8917 24 15.375 24C17.2336 24 18.7461 22.4897 18.75 20.6321C18.7686 19.5562 21 19.1246 21 16.125C21 13.0923 18.5327 10.625 15.5 10.625ZM23.8902 8.9937L23.0062 8.10983C22.8598 7.96339 22.6224 7.96339 22.4759 8.10983L19.7562 10.8295C19.6098 10.9759 19.6098 11.2134 19.7562 11.3598L20.6401 12.2437C20.7866 12.3902 21.024 12.3902 21.1705 12.2437L23.8902 9.52408C24.0366 9.37758 24.0366 9.14014 23.8902 8.9937ZM13.2803 17.8358C13.1339 17.6893 12.8964 17.6893 12.75 17.8358L8.10983 22.4759C7.96339 22.6224 7.96339 22.8598 8.10983 23.0063L8.99373 23.8902C9.1402 24.0366 9.37761 24.0366 9.52408 23.8902L14.1642 19.25C14.3107 19.1036 14.3107 18.8661 14.1642 18.7197L13.2803 17.8358Z" fill="#FCFCFC"/>
</svg>
