<svg width="32" height="32" viewBox="0 0 32 32" fill="none" xmlns="http://www.w3.org/2000/svg">
<circle cx="16" cy="16" r="15" fill="#F16730" stroke="#F16730" stroke-width="2"/>
<path d="M8.726 23C8.594 23 8.484 22.956 8.396 22.868C8.308 22.7653 8.264 22.6553 8.264 22.538C8.264 22.4647 8.27133 22.3987 8.286 22.34L13.522 8.194C13.566 8.03267 13.654 7.89333 13.786 7.776C13.918 7.65867 14.1013 7.6 14.336 7.6H17.152C17.3867 7.6 17.57 7.65867 17.702 7.776C17.834 7.89333 17.922 8.03267 17.966 8.194L23.202 22.34C23.2167 22.3987 23.224 22.4647 23.224 22.538C23.224 22.6553 23.18 22.7653 23.092 22.868C23.004 22.956 22.894 23 22.762 23H20.474C20.254 23 20.0927 22.9487 19.99 22.846C19.8873 22.7433 19.8213 22.648 19.792 22.56L18.846 20.096H12.642L11.696 22.56C11.6667 22.648 11.6007 22.7433 11.498 22.846C11.3953 22.9487 11.234 23 11.014 23H8.726ZM13.456 17.258H18.01L15.744 10.922L13.456 17.258Z" fill="white"/>
</svg>
