<svg width="32" height="32" viewBox="0 0 32 32" fill="none" xmlns="http://www.w3.org/2000/svg">
<circle cx="16" cy="16" r="15" fill="#256254" stroke="#256254" stroke-width="2"/>
<path d="M14.158 17.946L13.482 19.675C13.404 19.8917 13.235 20 12.975 20H12.494C12.416 20 12.3467 19.974 12.286 19.922C12.234 19.8613 12.208 19.792 12.208 19.714C12.208 19.6707 12.2253 19.61 12.26 19.532L15.445 11.329C15.5577 11.043 15.7527 10.9 16.03 10.9H16.81C17.0873 10.9 17.2823 11.043 17.395 11.329L20.567 19.532C20.6017 19.61 20.619 19.6707 20.619 19.714C20.619 19.792 20.5887 19.8613 20.528 19.922C20.476 19.974 20.411 20 20.333 20H19.852C19.592 20 19.423 19.8917 19.345 19.675L18.669 17.946H14.158ZM18.214 16.776L16.42 12.135L14.613 16.776H18.214Z" fill="white"/>
</svg>
