<svg width="32" height="32" viewBox="0 0 32 32" fill="none" xmlns="http://www.w3.org/2000/svg">
<circle cx="16" cy="16" r="15" fill="#256254" stroke="#256254" stroke-width="2"/>
<path d="M13.4372 14.6728V16.428C12.5291 16.9816 11.9186 18.016 11.9186 19.2C11.9186 20.968 13.2778 22.4 14.9559 22.4C16.0797 22.4 17.0615 21.7568 17.5869 20.8H19.2522C18.6272 22.664 16.9392 24 14.9559 24C12.4395 24 10.3999 21.8512 10.3999 19.2C10.3999 17.1096 11.668 15.332 13.4372 14.6728ZM16.4745 20C15.2163 20 14.1965 18.9256 14.1965 17.6V14.4C14.1965 13.0744 15.2163 12 16.4745 12C17.7327 12 18.7525 13.0744 18.7525 14.4V18.4H19.8414C20.3334 18.4 20.7928 18.6512 21.0761 19.0688L21.1436 19.1768L23.1999 22.7888L21.8984 23.6112L19.8406 20H16.4745ZM16.4745 8C17.5224 8 18.3729 8.896 18.3729 10C18.3729 11.104 17.5224 12 16.4745 12C15.4267 12 14.5762 11.104 14.5762 10C14.5762 8.896 15.4267 8 16.4745 8Z" fill="#FCFCFC"/>
</svg>
