<svg width="32" height="32" viewBox="0 0 32 32" fill="none" xmlns="http://www.w3.org/2000/svg">
<circle cx="16" cy="16" r="15" fill="#222221" stroke="#FFFE54" stroke-width="2"/>
<path d="M11.528 21C11.432 21 11.352 20.968 11.288 20.904C11.224 20.8293 11.192 20.7493 11.192 20.664C11.192 20.6107 11.1973 20.5627 11.208 20.52L15.016 10.232C15.048 10.1147 15.112 10.0133 15.208 9.928C15.304 9.84267 15.4373 9.8 15.608 9.8H17.656C17.8267 9.8 17.96 9.84267 18.056 9.928C18.152 10.0133 18.216 10.1147 18.248 10.232L22.056 20.52C22.0667 20.5627 22.072 20.6107 22.072 20.664C22.072 20.7493 22.04 20.8293 21.976 20.904C21.912 20.968 21.832 21 21.736 21H20.072C19.912 21 19.7947 20.9627 19.72 20.888C19.6453 20.8133 19.5973 20.744 19.576 20.68L18.888 18.888H14.376L13.688 20.68C13.6667 20.744 13.6187 20.8133 13.544 20.888C13.4693 20.9627 13.352 21 13.192 21H11.528ZM14.968 16.824H18.28L16.632 12.216L14.968 16.824Z" fill="#FFFE54"/>
</svg>
